<svg width="24" height="24" viewBox="0 0 24 24" fill="none" xmlns="http://www.w3.org/2000/svg">
<path d="M11 3.01241C10.9983 2.46013 11.4446 2.01101 11.9969 2.00928C12.5492 2.00755 12.9983 2.45386 13 3.00614L11 3.01241Z" fill="#828282"/>
<path d="M14.3156 10.2952L13.0267 11.5921L12.9998 3.00635L10.9998 3.01262L11.0267 11.5984L9.72981 10.3096C9.33806 9.92026 8.70488 9.92222 8.31558 10.314C7.92628 10.7057 7.92827 11.3389 8.32002 11.7282L8.32253 11.7307L8.32352 11.7317L12.0388 15.4237L15.7204 11.7188L15.726 11.7132L15.7268 11.7124L15.7276 11.7116L15.7335 11.7057L14.3156 10.2952Z" fill="#828282"/>
<path d="M15.7345 11.7049C16.1238 11.3131 16.1218 10.6799 15.7301 10.2906C15.3383 9.90137 14.7051 9.90338 14.3159 10.2951L15.7345 11.7049Z" fill="#828282"/>
<path d="M4 12C4 10.8954 4.89543 10 6 10C6.55228 10 7 9.55228 7 9C7 8.44771 6.55228 8 6 8C3.79086 8 2 9.79086 2 12V18C2 20.2091 3.79086 22 6 22H17C19.7614 22 22 19.7614 22 17V12C22 9.79086 20.2091 8 18 8C17.4477 8 17 8.44771 17 9C17 9.55228 17.4477 10 18 10C19.1046 10 20 10.8954 20 12V17C20 18.6569 18.6569 20 17 20H6C4.89543 20 4 19.1046 4 18V12Z" fill="#828282"/>
</svg>
