<svg width="28" height="40" viewBox="0 0 28 40" fill="none" xmlns="http://www.w3.org/2000/svg">
<path d="M14 0C10.287 0 6.72601 1.475 4.1005 4.1005C1.475 6.72601 0 10.287 0 14C0 18.76 2.38 22.94 6 25.48V30C6 30.5304 6.21071 31.0391 6.58579 31.4142C6.96086 31.7893 7.46957 32 8 32H20C20.5304 32 21.0391 31.7893 21.4142 31.4142C21.7893 31.0391 22 30.5304 22 30V25.48C25.62 22.94 28 18.76 28 14C28 10.287 26.525 6.72601 23.8995 4.1005C21.274 1.475 17.713 0 14 0ZM8 38C8 38.5304 8.21071 39.0391 8.58579 39.4142C8.96086 39.7893 9.46957 40 10 40H18C18.5304 40 19.0391 39.7893 19.4142 39.4142C19.7893 39.0391 20 38.5304 20 38V36H8V38Z" fill="#141526"/>
</svg>
