<svg width="24" height="24" viewBox="0 0 24 24" fill="none" xmlns="http://www.w3.org/2000/svg">
<path d="M12 12C12.6188 12 13.1486 11.7648 13.5896 11.2944C14.0299 10.8248 14.25 10.26 14.25 9.6C14.25 8.94 14.0299 8.3748 13.5896 7.9044C13.1486 7.4348 12.6188 7.2 12 7.2C11.3812 7.2 10.8518 7.4348 10.4115 7.9044C9.9705 8.3748 9.75 8.94 9.75 9.6C9.75 10.26 9.9705 10.8248 10.4115 11.2944C10.8518 11.7648 11.3812 12 12 12ZM12 24C8.98125 21.26 6.72675 18.7148 5.2365 16.3644C3.7455 14.0148 3 11.84 3 9.84C3 6.84 3.90488 4.45 5.71463 2.67C7.52363 0.89 9.61875 0 12 0C14.3812 0 16.4764 0.89 18.2854 2.67C20.0951 4.45 21 6.84 21 9.84C21 11.84 20.2549 14.0148 18.7646 16.3644C17.2736 18.7148 15.0188 21.26 12 24Z" fill="#1D9BF0"/>
</svg>
