<svg width="182" height="32" viewBox="0 0 182 32" fill="none" xmlns="http://www.w3.org/2000/svg">
<path fill-rule="evenodd" clip-rule="evenodd" d="M44.1294 21.1679C41.384 21.7546 41.5792 19.189 41.3163 17.2841C41.0541 15.3793 39.8203 10.0337 39.1429 7.74293C38.4662 5.45282 35.0902 2.07124 29.8265 0.700417C24.9708 -0.564507 20.6637 0.243693 20.026 0.376228C19.3838 0.484724 15.0779 1.30137 11.0194 4.24831C6.61985 7.44213 4.71259 11.8203 4.91952 14.1994C5.12645 16.5786 5.93139 22.0047 6.38299 23.8745C6.83459 25.7442 7.95383 28.0616 5.18371 28.5151C2.41359 28.9692 -0.547195 29.1446 0.0866079 30.2238C0.720411 31.3029 1.9301 33.1311 18.7161 31.0482C18.7161 31.0482 24.106 30.2244 25.5415 29.9645C25.5663 29.9606 25.5942 29.9554 25.6235 29.9496C25.6528 29.9444 25.6808 29.9392 25.7055 29.934C27.1364 29.652 32.4554 28.456 32.4554 28.456C48.8458 24.2799 49.3039 22.1372 49.4998 20.9015C49.6957 19.6658 46.8748 20.5806 44.13 21.1672L44.1294 21.1679ZM14.8697 18.4782L14.8404 18.4802C14.478 18.4776 14.1877 18.1859 14.1871 17.8285L14.1845 13.1424C14.1871 12.7805 14.4793 12.4908 14.8372 12.4901L14.871 12.4914C15.2328 12.4901 15.523 12.7818 15.5237 13.1398V17.8305C15.5237 18.1878 15.2321 18.4815 14.8697 18.4789V18.4782ZM17.5416 22.4822H17.5266C17.1602 22.4796 16.8661 22.1846 16.8642 21.8202V9.14559C16.8642 8.78437 17.1615 8.48617 17.524 8.48876H17.5429C17.9047 8.48812 18.2027 8.78177 18.2046 9.14624V21.8208C18.202 22.1866 17.9073 22.4802 17.5416 22.4822ZM20.2251 20.4747H20.203C19.8334 20.4747 19.5386 20.1797 19.5367 19.8146L19.5393 11.1524C19.538 10.7912 19.836 10.493 20.2024 10.4943H20.2245C20.5895 10.4917 20.885 10.7899 20.8869 11.155V19.8133C20.8856 20.1784 20.5908 20.4727 20.2251 20.4747ZM23.5562 23.8212C23.5581 24.1856 23.2627 24.48 22.8976 24.4819H22.8788C22.5163 24.4793 22.2183 24.185 22.2209 23.8238L22.2183 6.47801C22.217 6.11679 22.515 5.81858 22.8814 5.82053H22.8963C23.2614 5.81923 23.5562 6.11419 23.5581 6.47866L23.5568 23.8212H23.5562ZM25.576 20.4747L25.55 20.476C25.1882 20.4773 24.8895 20.1797 24.8921 19.8179L24.8895 11.1492C24.8921 10.7873 25.1869 10.493 25.5526 10.4917H25.5747C25.9404 10.493 26.2352 10.7873 26.2372 11.1524L26.2352 19.8185C26.2372 20.183 25.9417 20.4773 25.576 20.4753V20.4747ZM28.2505 22.4809H28.2316C27.8659 22.4789 27.5711 22.1846 27.5698 21.8234V9.14559C27.5724 8.78372 27.8666 8.48617 28.2323 8.48811H28.2472C28.6123 8.48746 28.9071 8.78177 28.909 9.14624V21.8208C28.9103 22.1853 28.6116 22.4802 28.2498 22.4815L28.2505 22.4809ZM31.5835 13.1379L31.5867 17.8279C31.5835 18.1859 31.292 18.4795 30.9334 18.4763L30.9041 18.4782C30.5423 18.4795 30.2521 18.1878 30.2508 17.8266L30.2521 13.1398C30.2508 12.7786 30.543 12.4888 30.9015 12.4882L30.9354 12.4895C31.2933 12.4895 31.5835 12.7805 31.5841 13.1385L31.5835 13.1379Z" fill="#1D9BF0"/>
<path d="M74.6981 18.745C73.5041 22.9447 69.6839 23.7544 67.5647 23.7544C56.3721 23.7544 56.2228 5.42627 68.0127 5.42627C70.2514 5.42627 74.1313 6.35611 74.1313 9.29573C74.1313 10.7359 73.1464 11.4256 72.1914 11.4256C71.3558 11.4256 70.5792 10.886 70.5792 9.86611C70.5792 9.17644 71.1168 8.60605 71.1168 8.00643C71.1467 6.53623 69.4158 6.02668 68.2816 6.02668C60.0438 6.02668 61.8344 22.195 69.3561 22.195C71.535 22.195 73.6542 20.6355 74.1313 18.5657L74.6981 18.7458V18.745Z" fill="#EEEEEE"/>
<path d="M87.1435 12.9259C87.1435 10.8561 86.2183 9.7161 84.3082 9.7161C83.0246 9.7161 81.682 10.4058 80.488 11.4257V23.1541H82.5176V23.7537H74.8772V23.1541H76.9068V3.35654H74.8772V2.75693C75.892 2.75693 78.5182 2.75693 80.1901 2.24658H80.4888V10.676C81.8314 9.62604 84.0402 8.45604 86.01 8.45604C89.7107 8.45604 90.7255 10.5559 90.7255 13.7957V23.1549H92.7551V23.7545H85.1147V23.1549H87.1443V12.9259H87.1435Z" fill="#EEEEEE"/>
<path d="M102.664 12.5655C102.664 10.2555 101.231 9.35569 100.008 9.35569C98.9634 9.35569 97.7694 9.80599 97.7694 11.0352C97.7694 11.6349 98.2473 12.1452 98.2473 12.8349C98.2473 13.9448 97.4715 14.4544 96.6359 14.4544C95.8003 14.4544 94.8751 13.8848 94.8751 12.7448C94.8751 10.3748 98.8447 8.45508 101.531 8.45508C104.218 8.45508 106.307 9.62508 106.337 12.5047C106.366 16.224 102.934 16.0439 100.337 16.3741C98.3675 16.6143 96.6665 16.9137 96.6665 18.8634C96.6665 20.3336 97.532 21.3235 99.0836 21.3235C102.636 21.2935 103.262 18.6841 105.292 18.6841C105.799 18.6841 106.247 18.8642 106.247 19.4638V20.844C106.247 22.1341 106.247 23.154 107.589 23.154H108.187V23.7536C107.53 23.8136 106.038 23.8436 105.381 23.8436C103.232 23.8436 102.725 23.154 102.666 20.7539C101.233 21.7738 99.6512 24.0838 97.0541 24.0838C94.7855 24.0838 93.1144 22.4943 93.1144 20.2143C93.1144 14.3651 102.666 18.0244 102.666 12.5655H102.664Z" fill="#EEEEEE"/>
<path d="M119.289 8.45593C127.646 8.45593 126.989 24.0546 117.767 24.0546C116.573 24.0546 115.021 23.3349 114.007 22.4651V29.1541H116.036V29.7537H108.396V29.1541H110.425V9.35575H108.396V8.75614C109.411 8.75614 112.037 8.75614 113.709 8.24658H114.007V10.7067C116.157 9.26648 117.738 8.45672 119.291 8.45672L119.289 8.45593ZM114.006 21.7146C114.841 22.4343 115.856 23.0347 116.961 23.0347C122.96 23.0347 122.93 10.4357 116.901 10.4357C115.856 10.4357 114.871 10.826 114.006 11.3655V21.7146Z" fill="#EEEEEE"/>
<path d="M125.616 23.1549H127.646V3.35654H125.616V2.75693C126.631 2.75693 129.257 2.75693 130.929 2.24658H131.228V23.1549H133.257V23.7545H125.617V23.1549H125.616Z" fill="#EEEEEE"/>
<path d="M147.374 19.2845C146.27 22.3742 143.315 24.0538 140.749 24.0538C131.616 24.0538 131.109 8.45508 140.958 8.45508C144.241 8.45508 147.639 10.7864 147.669 13.786H137.551C136.865 17.4153 138.481 21.3843 143.197 21.3843C144.718 21.3843 146.181 20.6346 147.047 19.1344L147.375 19.2845H147.374ZM144.266 13.1864C144.116 11.3568 143.076 9.05548 140.987 9.05548C139.077 9.05548 138.207 11.3868 137.7 13.1864H144.266Z" fill="#EEEEEE"/>
<path d="M157.522 12.5655C157.522 10.2555 156.09 9.35569 154.866 9.35569C153.822 9.35569 152.628 9.80599 152.628 11.0352C152.628 11.6349 153.105 12.1452 153.105 12.8349C153.105 13.9448 152.329 14.4544 151.493 14.4544C150.658 14.4544 149.733 13.8848 149.733 12.7448C149.733 10.3748 153.702 8.45508 156.388 8.45508C159.074 8.45508 161.163 9.62508 161.193 12.5047C161.223 16.224 157.79 16.0439 155.194 16.3741C153.224 16.6143 151.523 16.9137 151.523 18.8634C151.523 20.3336 152.389 21.3235 153.94 21.3235C157.492 21.2935 158.119 18.6841 160.149 18.6841C160.656 18.6841 161.104 18.8642 161.104 19.4638V20.844C161.104 22.1341 161.104 23.154 162.446 23.154H163.044V23.7536C162.386 23.8136 160.894 23.8436 160.238 23.8436C158.089 23.8436 157.581 23.154 157.522 20.7539C156.089 21.7738 154.507 24.0838 151.911 24.0838C149.642 24.0838 147.971 22.4943 147.971 20.2143C147.971 14.3651 157.522 18.0244 157.522 12.5655Z" fill="#EEEEEE"/>
<path d="M181.131 23.1548V23.7544H173.491V23.1548H175.521V12.9258C175.521 10.856 174.595 9.716 172.685 9.716C171.402 9.716 170.058 10.4057 168.865 11.4256V23.154H170.895V23.7536H163.254V23.154H165.284V9.35575H163.254V8.75614C164.269 8.75614 166.895 8.75614 168.567 8.24658H168.866V10.6766C170.208 9.62672 172.417 8.45672 174.387 8.45672C178.088 8.45672 179.103 10.5566 179.103 13.7964V23.1556H181.132L181.131 23.1548Z" fill="#EEEEEE"/>
</svg>
