<svg width="48" height="48" viewBox="0 0 48 48" fill="none" xmlns="http://www.w3.org/2000/svg">
<path opacity="0.985" fill-rule="evenodd" clip-rule="evenodd" d="M21.8906 -0.046875C23.2657 -0.046875 24.6406 -0.046875 26.0156 -0.046875C35.4192 1.12332 42.1223 5.99832 46.125 14.5781C47.0903 16.9394 47.6997 19.3769 47.9531 21.8906C47.9531 23.2657 47.9531 24.6406 47.9531 26.0156C47.091 33.539 43.591 39.4921 37.4531 43.875C40.953 43.9219 44.453 43.9375 47.9531 43.9219C47.9531 45.2656 47.9531 46.6094 47.9531 47.9531C39.2656 47.9531 30.5782 47.9531 21.8906 47.9531C12.487 46.7829 5.78388 41.9079 1.78125 33.3281C0.815936 30.9668 0.206561 28.5293 -0.046875 26.0156C-0.046875 24.6406 -0.046875 23.2657 -0.046875 21.8906C1.12332 12.487 5.99832 5.78388 14.5781 1.78125C16.9394 0.815936 19.3769 0.206561 21.8906 -0.046875ZM23.3906 3.98438C26.8193 3.98665 28.9598 5.64291 29.8125 8.95312C30.1087 11.9712 28.9056 14.1431 26.2031 15.4688C23.2215 16.4331 20.7997 15.6674 18.9375 13.1719C17.9394 11.4015 17.7832 9.55772 18.4688 7.64062C19.4829 5.56466 21.1236 4.34591 23.3906 3.98438ZM10.2656 13.6406C13.5892 13.7463 15.6672 15.4026 16.5 18.6094C16.7787 22.2888 15.1381 24.5857 11.5781 25.5C7.45189 25.6547 5.13939 23.6859 4.64062 19.5938C5.0277 16.1913 6.9027 14.207 10.2656 13.6406ZM36.9844 13.6406C39.644 13.7118 41.5658 14.9305 42.75 17.2969C43.7746 20.3077 43.0089 22.7608 40.4531 24.6562C37.5798 26.1748 35.0017 25.7842 32.7188 23.4844C31.1639 21.3691 30.9452 19.1191 32.0625 16.7344C33.2073 14.9047 34.8479 13.8734 36.9844 13.6406ZM23.6719 21.9844C25.3358 22.0955 26.039 22.9704 25.7812 24.6094C25.0157 25.9688 23.9688 26.2343 22.6406 25.4062C21.8344 24.5221 21.7875 23.6003 22.5 22.6406C22.8505 22.333 23.2411 22.1142 23.6719 21.9844ZM15.3281 29.2969C18.2645 29.3345 20.2801 30.7095 21.375 33.4219C22.1691 36.8805 20.966 39.3649 17.7656 40.875C14.3498 41.7681 11.8343 40.6586 10.2188 37.5469C9.23197 34.4132 10.0913 31.9288 12.7969 30.0938C13.6076 29.6827 14.4514 29.4171 15.3281 29.2969ZM31.8281 29.2969C34.5713 29.3316 36.5244 30.5815 37.6875 33.0469C38.7353 36.5279 37.6572 39.106 34.4531 40.7812C31.5691 41.7285 29.1785 41.0254 27.2812 38.6719C25.7998 36.2863 25.8623 33.9426 27.4688 31.6406C28.6194 30.2766 30.0726 29.4953 31.8281 29.2969Z" fill="black"/>
</svg>
