<svg width="24" height="24" viewBox="0 0 24 24" fill="none" xmlns="http://www.w3.org/2000/svg">
<g clip-path="url(#clip0_61_376)">
<path fill-rule="evenodd" clip-rule="evenodd" d="M2.82747 0.76672C3.08994 0.504653 3.4051 0.301358 3.75207 0.170305C4.09904 0.0392528 4.46991 -0.0165637 4.84008 0.00655466C5.21026 0.029673 5.5713 0.131198 5.89927 0.304402C6.22724 0.477607 6.51466 0.718535 6.74247 1.01122L9.43497 4.47022C9.92847 5.10472 10.1025 5.93122 9.90747 6.71122L9.08697 9.99622C9.04455 10.1664 9.04684 10.3446 9.09363 10.5136C9.14041 10.6826 9.2301 10.8366 9.35397 10.9607L13.0395 14.6462C13.1637 14.7704 13.318 14.8602 13.4873 14.907C13.6566 14.9538 13.8351 14.9559 14.0055 14.9132L17.289 14.0927C17.6739 13.9965 18.0757 13.989 18.4639 14.0709C18.8521 14.1527 19.2167 14.3218 19.53 14.5652L22.989 17.2562C24.2325 18.2237 24.3465 20.0612 23.2335 21.1727L21.6825 22.7237C20.5725 23.8337 18.9135 24.3212 17.367 23.7767C13.4087 22.384 9.81488 20.118 6.85197 17.1467C3.88091 14.1842 1.61489 10.5909 0.221974 6.63322C-0.321026 5.08822 0.166474 3.42772 1.27647 2.31772L2.82747 0.76672Z" fill="#1D9BF0"/>
</g>
<defs>
<clipPath id="clip0_61_376">
<rect width="24" height="24" fill="white"/>
</clipPath>
</defs>
</svg>
