<svg width="25" height="25" viewBox="0 0 35 34" fill="none" xmlns="http://www.w3.org/2000/svg">
<path d="M7.92079 1.17787C7.72766 1.06336 7.50767 1.00201 7.28316 1.00005C7.05864 0.998088 6.83761 1.05559 6.64251 1.1667C6.44741 1.27782 6.2852 1.43859 6.17235 1.63269C6.0595 1.82679 6.00004 2.0473 6 2.27182V31.7282C6.00004 31.9527 6.0595 32.1732 6.17235 32.3673C6.2852 32.5614 6.44741 32.7222 6.64251 32.8333C6.83761 32.9444 7.05864 33.0019 7.28316 33C7.50767 32.998 7.72766 32.9366 7.92079 32.8221L32.7745 18.094C32.9643 17.9813 33.1215 17.8212 33.2307 17.6294C33.34 17.4376 33.3974 17.2207 33.3974 17C33.3974 16.7793 33.34 16.5624 33.2307 16.3706C33.1215 16.1788 32.9643 16.0187 32.7745 15.906L7.92079 1.17787Z" fill="#fff" stroke="#fff" stroke-width="1.5" stroke-linecap="round" stroke-linejoin="round"/>
</svg>
