<svg width="20" height="20" viewBox="0 0 20 20" fill="none" xmlns="http://www.w3.org/2000/svg">
<path fill-rule="evenodd" clip-rule="evenodd" d="M5.25007 0.38782C6.54878 0.0992 8.1243 0 10 0C11.8757 0 13.4512 0.0992 14.7499 0.38782C16.06 0.67897 17.1488 1.176 17.9864 2.01358C18.824 2.85116 19.321 3.94002 19.6122 5.25007C19.9008 6.54878 20 8.1243 20 10C20 11.8757 19.9008 13.4512 19.6122 14.7499C19.321 16.06 18.824 17.1488 17.9864 17.9864C17.1488 18.824 16.06 19.321 14.7499 19.6122C13.4512 19.9008 11.8757 20 10 20C8.1243 20 6.54878 19.9008 5.25007 19.6122C3.94002 19.321 2.85116 18.824 2.01358 17.9864C1.176 17.1488 0.67897 16.06 0.38782 14.7499C0.0992 13.4512 0 11.8757 0 10C0 8.1243 0.0992 6.54878 0.38782 5.25007C0.67897 3.94002 1.176 2.85116 2.01358 2.01358C2.85116 1.176 3.94002 0.67897 5.25007 0.38782ZM13.7071 7.29289C14.0976 7.68342 14.0976 8.3166 13.7071 8.7071L10.0243 12.3899C9.4586 12.9556 8.5414 12.9556 7.97568 12.3899L6.29289 10.7071C5.90237 10.3166 5.90237 9.6834 6.29289 9.2929C6.68342 8.9024 7.31658 8.9024 7.70711 9.2929L9 10.5858L12.2929 7.29289C12.6834 6.90237 13.3166 6.90237 13.7071 7.29289Z" fill="#1D9BF0"/>
</svg>
