<svg width="24" height="24" viewBox="0 0 24 24"  style="color:white;" xmlns="http://www.w3.org/2000/svg">
<path d="M23.9468 1.02871C24.0013 0.892413 24.0147 0.743103 23.9852 0.599288C23.9557 0.455474 23.8846 0.32348 23.7808 0.21967C23.677 0.11586 23.545 0.0448002 23.4012 0.015299C23.2574 -0.0142021 23.1081 -0.000846891 22.9718 0.0537091L1.15126 8.78221H1.14976L0.471758 9.05221C0.343344 9.10343 0.231587 9.18915 0.148832 9.2999C0.0660771 9.41066 0.0155454 9.54213 0.00281862 9.67979C-0.00990819 9.81746 0.0156652 9.95597 0.0767139 10.08C0.137763 10.2041 0.231911 10.3088 0.348758 10.3827L0.963758 10.7727L0.965258 10.7757L8.45776 15.5427L13.2248 23.0352L13.2278 23.0382L13.6178 23.6532C13.6919 23.7696 13.7967 23.8633 13.9207 23.924C14.0446 23.9846 14.1829 24.0099 14.3203 23.997C14.4577 23.9842 14.5889 23.9336 14.6994 23.851C14.8099 23.7684 14.8955 23.6569 14.9468 23.5287L23.9468 1.02871V1.02871ZM21.1973 3.86371L9.95626 15.1047L9.63376 14.5977C9.57467 14.5047 9.4958 14.4258 9.40276 14.3667L8.89576 14.0442L20.1368 2.80321L21.9038 2.09671L21.1988 3.86371H21.1973Z" fill="#fff"/>
</svg>
