<svg width="43" height="43" viewBox="0 0 43 43" fill="none" xmlns="http://www.w3.org/2000/svg">
<path opacity="0.992" fill-rule="evenodd" clip-rule="evenodd" d="M19.9844 0.953168C27.9616 0.51305 34.3522 3.45055 39.1563 9.76567C43.4484 16.3027 44.136 23.209 41.2188 30.4844C37.7098 37.7402 31.9442 41.8808 23.9219 42.9063C15.9425 43.3923 9.55198 40.4704 4.75001 34.1407C0.457777 27.6035 -0.22972 20.6972 2.68751 13.4219C6.21134 6.16475 11.977 2.00849 19.9844 0.953168ZM28.9844 13.0469C30.3422 12.9515 30.9515 13.5765 30.8125 14.9219C29.2865 18.5623 27.724 22.1874 26.125 25.7969C25.8216 26.1129 25.4623 26.3473 25.0469 26.5C21.7548 27.8805 18.4735 29.2868 15.2031 30.7188C13.7053 31.0954 13.0022 30.5172 13.0938 28.9844C14.6197 25.344 16.1823 21.719 17.7813 18.1094C18.0846 17.7934 18.444 17.559 18.8594 17.4063C22.2537 15.9742 25.6287 14.521 28.9844 13.0469Z" fill="black"/>
</svg>
