<svg width="40" height="40" viewBox="0 0 40 40" fill="none" xmlns="http://www.w3.org/2000/svg">
<path opacity="0.983" fill-rule="evenodd" clip-rule="evenodd" d="M18.5468 0.828017C22.3418 0.585261 25.8262 1.4915 28.9999 3.54677C31.8777 2.12016 34.612 2.35454 37.2031 4.24989C39.9872 6.88914 40.5965 9.96724 39.0312 13.4843C38.3815 14.5871 37.5221 15.4934 36.4531 16.203C36.4695 23.2677 33.4226 28.5177 27.3124 31.953C27.1084 35.0656 25.5929 37.2687 22.7656 38.5624C19.2065 39.7508 16.2534 38.8914 13.9062 35.9843C13.0789 34.7696 12.6414 33.4259 12.5937 31.953C6.48326 28.5173 3.43643 23.2673 3.45307 16.203C0.531343 14.1424 -0.515526 11.3611 0.312446 7.85927C1.51007 4.5533 3.86945 2.80331 7.39057 2.60927C8.64513 2.62208 9.81701 2.93458 10.9062 3.54677C13.2289 1.99656 15.7759 1.09031 18.5468 0.828017ZM18.7343 4.67177C21.3766 4.46532 23.8453 5.01219 26.1406 6.31239C24.6592 9.20195 24.8624 11.9676 26.7499 14.6093C28.2577 16.3865 30.1796 17.2928 32.5156 17.328C32.33 21.9827 30.2831 25.5452 26.3749 28.0155C24.2943 24.9373 21.4349 23.8279 17.7968 24.6874C16.02 25.262 14.645 26.3401 13.6718 27.9218C13.5907 28.0233 13.497 28.0389 13.3906 27.9686C9.58076 25.46 7.58079 21.913 7.39057 17.328C10.9115 17.1384 13.2709 15.3884 14.4687 12.078C15.0091 10.0592 14.7747 8.13733 13.7656 6.31239C15.3206 5.43208 16.9769 4.88519 18.7343 4.67177Z" fill="black"/>
</svg>
